<?xml version="1.0" encoding="UTF-8"?>
<svg id="Layer_3" data-name="Layer 3" xmlns="http://www.w3.org/2000/svg" viewBox="0 0 1000 1000">
  <defs>
    <style>
      .cls-1 {
        fill: #06d6a0;
      }

      .cls-1, .cls-2, .cls-3, .cls-4, .cls-5 {
        stroke-width: 0px;
      }

      .cls-2 {
        fill: #eaba6b;
      }

      .cls-3 {
        fill: #8b5cf6;
      }

      .cls-4 {
        fill: #2dc7ff;
      }

      .cls-5 {
        fill: #ef476f;
      }
    </style>
  </defs>
  <path class="cls-1" d="M500,55.6555c-81.2368.2572-154.1842,19.0613-218.8118,56.388-44.4206,25.6472-82.4303,58.0979-114.0404,97.3334l332.8522,290.6342V55.6555Z"/>
  <path class="cls-5" d="M167.1478,209.3769c-14.714,18.2636-28.0457,37.9927-39.984,59.1982-37.5853,66.7838-56.378,144.4839-56.378,233.1222,0,40.4933,4.1282,78.8323,12.3845,115.0149l416.8296-116.7012L167.1478,209.3769Z"/>
  <path class="cls-4" d="M83.1704,616.7123c9.3594,41.0174,24.0239,79.2635,43.9935,114.7348,37.509,66.6483,88.4555,118.7317,152.7908,156.2998l220.0454-387.7358-416.8296,116.7012Z"/>
  <path class="cls-2" d="M279.9546,887.7469c.1309.0764.2595.1555.3905.2318,64.5207,37.5853,137.7389,56.378,219.6545,56.378s155.1338-18.7927,219.6545-56.378c26.1055-15.2072,50.004-32.8027,71.7001-52.7856l-291.3543-335.182-220.0454,387.7358Z"/>
  <path class="cls-3" d="M872.8133,267.732c-37.5853-66.207-88.3721-118.1031-152.316-155.6885-63.9661-37.5853-136.8958-56.4002-218.8114-56.4002-.5637,0-1.1229.0104-1.6859.0121v444.3556l291.3543,335.182c31.9265-29.4057,59.0809-63.9832,81.459-103.746,37.586-66.7617,56.4009-143.907,56.4009-231.436,0-88.6384-18.8149-166.0721-56.4009-232.2791Z"/>
</svg>