<?xml version="1.0" encoding="UTF-8"?>
<svg id="Layer_3" data-name="Layer 3" xmlns="http://www.w3.org/2000/svg" viewBox="0 0 2706.9425 2134.1352">
  <defs>
    <style>
      .cls-1 {
        fill: #06d6a0;
      }

      .cls-1, .cls-2, .cls-3, .cls-4, .cls-5 {
        stroke-width: 0px;
      }

      .cls-2 {
        fill: #eaba6b;
      }

      .cls-3 {
        fill: #8b5cf6;
      }

      .cls-4 {
        fill: #2dc7ff;
      }

      .cls-5 {
        fill: #ef476f;
      }
    </style>
  </defs>
  <g>
    <path id="v" class="cls-3" d="M238.4912,827.6498L0,177.9083h183.0574l162.4439,486.0231,161.1524-486.0231h180.4743l-237.1997,649.7416h-211.4371Z"/>
    <path id="t" class="cls-3" d="M1816.4494,827.6498c-44.6937,0-84.2383-7.0864-118.6168-21.2593-34.3785-14.1728-61.0248-37.8112-79.9219-70.9152-18.9141-33.087-28.3627-78.4265-28.3627-136.0185v-275.8776h-112.1592v-145.671h112.1592L1608.8869,0h154.6947v177.9083h171.4676v145.671h-171.4676v278.4607c0,29.2294,6.4407,49.418,19.339,60.5999,12.8813,11.1819,34.8033,16.7559,65.7491,16.7559h83.7965v148.2541h-116.0168Z"/>
  </g>
  <g>
    <path class="cls-1" d="M1071.3,162.4362c-62.2213.197-118.0935,14.5995-167.5933,43.189-34.0228,19.6438-63.1354,44.4986-87.3464,74.55l254.9396,222.6039V162.4362Z"/>
    <path class="cls-5" d="M816.3604,280.1752c-11.2698,13.9886-21.4809,29.0995-30.6247,45.3414-28.7875,51.1514-43.1813,110.6637-43.1813,178.554,0,31.0148,3.1619,60.3796,9.4856,88.0928l319.26-89.3843-254.9396-222.6039Z"/>
    <path class="cls-4" d="M752.04,592.1633c7.1686,31.4163,18.4005,60.7099,33.6957,87.8782,28.729,51.0476,67.7502,90.9395,117.0262,119.7139l168.5382-296.9764-319.26,89.3843Z"/>
    <path class="cls-2" d="M902.7619,799.7554c.1002.0585.1987.1191.2991.1775,49.418,28.7875,105.4976,43.1813,168.2388,43.1813s118.8208-14.3938,168.2388-43.1813c19.9948-11.6475,38.2993-25.1244,54.9168-40.4297l-223.1554-256.7241-168.5382,296.9764Z"/>
    <path class="cls-3" d="M1356.8468,324.8708c-28.7875-50.7095-67.6864-90.4581-116.6625-119.2456-48.9932-28.7875-104.8518-43.1983-167.593-43.1983-.4317,0-.86.008-1.2913.0093v340.3429l223.1554,256.7241c24.4533-22.5225,45.2515-49.0063,62.3915-79.4616,28.7881-51.1344,43.1988-110.2219,43.1988-177.2625,0-67.8903-14.4108-127.1987-43.1988-177.9083Z"/>
  </g>
  <path class="cls-3" d="M2374.5646,852.5434c-65.4014,0-122.8564-14.5986-172.3799-43.8096-49.5234-29.1963-88.4219-69.6719-116.666-121.4277-28.2588-51.7402-42.3799-111.5762-42.3799-179.5225s14.1211-127.7666,42.3799-179.522c28.2441-51.7407,67.1426-92.2163,116.666-121.4277,49.5234-29.1958,106.9785-43.8091,172.3799-43.8091s123.0049,14.6133,172.8555,43.8091c49.8359,29.2114,88.8828,69.687,117.1416,121.4277,28.2441,51.7554,42.3809,111.5913,42.3809,179.522s-14.1367,127.7822-42.3809,179.5225c-28.2588,51.7559-67.3057,92.2314-117.1416,121.4277-49.8506,29.2109-107.4697,43.8096-172.8555,43.8096ZM2374.5646,723.9731c38.7197,0,71.9043-8.8838,99.5225-26.667,27.6191-17.7676,49.0479-42.6934,64.2852-74.7607,15.2383-32.0537,22.8574-70.3125,22.8574-114.7617s-7.6191-82.6924-22.8574-114.7607c-15.2373-32.0532-36.666-56.8149-64.2852-74.2852-27.6182-17.4551-60.8027-26.1899-99.5225-26.1899-37.4697,0-70.1631,8.7349-98.0947,26.1899-27.9463,17.4702-49.5234,42.2319-64.7617,74.2852-15.2373,32.0684-22.8564,70.3271-22.8564,114.7607s7.6191,82.708,22.8564,114.7617c15.2383,32.0674,36.8154,56.9932,64.7617,74.7607,27.9316,17.7832,60.625,26.667,98.0947,26.667Z"/>
</svg>